<svg xmlns="http://www.w3.org/2000/svg" width="500" height="714.986" viewBox="0 0 500 714.986">
  <g id="Layer_2" data-name="Layer 2" transform="translate(0.01)">
    <g id="Layer_1" data-name="Layer 1" transform="translate(-0.01)">
      <path id="Path_7630" data-name="Path 7630" d="M64.93,715c71-.94,87.838-59.359,129.358-79.428C122,641.53,118.229,697.109,64.93,715Z" transform="translate(0.008 -0.012)" fill="#0bf"/>
      <path id="Path_7631" data-name="Path 7631" d="M64.93,715c51.829-11.27,57.689-41.5,75.709-53.339-4.51,5.22-8.17,14.37-8.95,17.7,14.79-20.83,41.079-38.789,62.6-43.789C122,641.53,118.229,697.109,64.93,715Z" transform="translate(0.008 -0.012)" fill="#00c9ff"/>
      <path id="Path_7632" data-name="Path 7632" d="M428.652,423.583C394.992,287.635,303.554,237.246,223.906,198.2S50.669,127.418,15.14,40.2c-36.209,62.089-6,131.737,74.489,165.527S335.933,256.566,428.652,423.583Z" transform="translate(0.01 -0.001)" fill="#0bf"/>
      <path id="Path_7633" data-name="Path 7633" d="M411.4,444.646C370.274,350.2,287.735,307,234.4,288.7S77.309,242.449,47.4,216.75C54.31,278,90.459,315.6,165.248,326.248S347.584,363.807,411.4,444.646Z" transform="translate(0.009 -0.004)" fill="#0bf"/>
      <path id="Path_7634" data-name="Path 7634" d="M396.854,458.768c-52.759-72.729-136.067-85.588-171.537-88-53.189-3.56-98.758-1.57-130.837-22.21C99,381,122.289,420.439,182.868,418S323.106,404.549,396.854,458.768Z" transform="translate(0.008 -0.007)" fill="#0bf"/>
      <path id="Path_7635" data-name="Path 7635" d="M381.6,468.309c-93.9-64.109-165.5-8.83-212.2-20.46,11.58,25.24,46,33.279,84.328,23.11S343.367,452.24,381.6,468.309Z" transform="translate(0.006 -0.008)" fill="#0bf"/>
      <path id="Path_7636" data-name="Path 7636" d="M329.215,237.405C246.176,135.137,122.749,112.808,80.64,0,54.38,33.049,63,91.468,129.689,123.9S282.786,196.256,329.215,237.405Z" transform="translate(0.008)" fill="#0bf"/>
      <path id="Path_7637" data-name="Path 7637" d="M116,183C28.25,146.668-4.52,86.1,11,47.88Q12.92,44,15.14,40.2c35.529,87.218,129.127,119,208.766,158s171.087,89.438,204.746,225.386C360.683,252.476,204.876,219.877,116,183Z" transform="translate(0.01 -0.001)" fill="#0bf"/>
      <path id="Path_7638" data-name="Path 7638" d="M199.167,303.808c-92.6-18-141.327-35.759-151.787-87.058,29.929,25.7,133.687,53.639,187,71.949s135.877,61.5,177,156C363.644,372.777,309.265,325.188,199.167,303.808Z" transform="translate(0.009 -0.004)" fill="#0bf"/>
      <g id="Group_3715" data-name="Group 3715" transform="translate(94.488 348.583)">
        <path id="Path_7639" data-name="Path 7639" d="M94.48,348.59c32.079,20.64,77.649,18.65,130.837,22.21,35.469,2.38,118.778,15.24,171.537,88-80-65.6-130.088-67.669-189.736-66.219C142.429,394.119,111.87,385.819,94.48,348.59Z" transform="translate(-94.48 -348.59)" fill="#0fcaff"/>
      </g>
      <path id="Path_7640" data-name="Path 7640" d="M381.6,468.309c-42.419-22-86-22.41-122-13.18s-81.428,12.61-90.208-7.28C216.1,459.479,287.7,404.2,381.6,468.309Z" transform="translate(0.006 -0.008)" fill="#0bf"/>
      <path id="Path_7641" data-name="Path 7641" d="M147.729,113.2C88.31,80.878,66.89,38.559,80.64,0c42.109,112.808,165.537,135.137,248.575,237.405C286.226,189.9,207.137,145.507,147.729,113.2Z" transform="translate(0.008)" fill="#1ad4ff" opacity="0.5"/>
      <path id="Path_7642" data-name="Path 7642" d="M15.14,40.2c18,44.269,51,74.229,89.558,98.118-18.83-5.27-24.76,3.16-19.33,13.28,4.63,8.64,30.629,31.439,82.108,51h0c-18.63-6.91-36.059-13.17-51.479-19.6C28.25,146.668-4.52,86.1,11,47.88Q12.92,44,15.14,40.2Z" transform="translate(0.01 -0.001)" fill="#1ad4ff" opacity="0.5"/>
      <path id="Path_7643" data-name="Path 7643" d="M187.577,301.508C102.519,284.249,57.4,265.859,47.38,216.75c15.21,13.06,49.459,26.69,86.478,39.339-9.23,2.75-11.5,9.35-8,16.52C131,283.2,162.828,296.118,187.577,301.508Z" transform="translate(0.009 -0.004)" fill="#1ad4ff" opacity="0.5"/>
      <path id="Path_7644" data-name="Path 7644" d="M103.41,671.2C152.539,592.554,301,605.454,394.294,539.435c80.788-57.149,99.658-159.627,49.169-247.505,0,0,23.72,72.149,2.26,139.227v.06A149.223,149.223,0,0,1,426.3,471c-47.619,68.749-120.688,61.849-218.876,89.448a178.786,178.786,0,0,0-18.12,6.1h0C108.5,598.594,103.41,671.2,103.41,671.2Z" transform="translate(0.008 -0.006)" fill="#0bf"/>
      <path id="Path_7645" data-name="Path 7645" d="M77.89,625.526s35.549-47.429,111.408-59h0a178.811,178.811,0,0,1,18.12-6.1c98.188-27.6,171.257-20.7,218.876-89.448a149.213,149.213,0,0,0,19.39-39.8c-19.95,60.389-99.4,82.128-183.7,82.908C158.2,515.078,90.87,533.178,77.89,625.526Z" transform="translate(0.008 -0.008)" fill="#0bf"/>
      <path id="Path_7646" data-name="Path 7646" d="M183.889,555.758a179.759,179.759,0,0,1,18.35-5.34c99.258-23.479,172-13.54,222.426-80.248a146.363,146.363,0,0,0,16.39-27.66,87.906,87.906,0,0,0,4.64-11.29A149.218,149.218,0,0,1,426.3,471c-47.619,68.749-120.688,61.849-218.876,89.448a178.755,178.755,0,0,0-18.12,6.1h0a198.439,198.439,0,0,0-52.079,15.28,146.517,146.517,0,0,1,46.659-26.089Z" transform="translate(0.007 -0.008)" fill="#03a5ff"/>
      <path id="Path_7647" data-name="Path 7647" d="M262,514.129c52.939-.49,104-9.26,139.537-30.66C352.165,527.189,256,532.259,213,536.7c-63.859,6.63-123.468,31.479-135.107,88.828C90.87,533.179,158.2,515.079,262,514.129Z" transform="translate(0.008 -0.009)" fill="#2cd7ff" opacity="0.6"/>
      <path id="Path_7648" data-name="Path 7648" d="M189.3,566.565h0a178.813,178.813,0,0,1,18.12-6.1c98.188-27.6,171.257-20.7,218.876-89.448a149.217,149.217,0,0,0,19.39-39.8v-.06c21.46-67.079-2.26-139.227-2.26-139.227s37.659,81.268,6.08,164c-27.26,71.369-96,96.678-172.457,111.088-100.868,19-161.337,54.149-173.677,104.218C103.41,671.2,108.5,598.594,189.3,566.565Z" transform="translate(0.008 -0.006)" fill="#02d0ff" opacity="0.8"/>
      <path id="Path_7649" data-name="Path 7649" d="M418,259.328a33,33,0,0,1,22.59-30,31.379,31.379,0,0,1-2.05-9.13c-1.19-17.21,12-33,32-40.879a29,29,0,0,0-10.73-8.68c-15.24-7-52.489-10.41-57.319-38.819,0,0-4.39,33.249,5.82,42.649-25.23,5.5-59.059,37.649-35.1,85.258,15.52,30.819,41.869,34.6,65.409,107.758C447.928,316.056,416.459,290.577,418,259.328Z" transform="translate(0.003 -0.003)" fill="#0bf"/>
      <path id="Path_7650" data-name="Path 7650" d="M484.447,205.749h0a36.066,36.066,0,0,0-10.62-6.49s4.65-25.479-19.12-31.359c-14.74-3.63-27.22-6.74-38.949-11.05-7-2.6-19.75,2-45.889-27.349,0,0,4.68,15.2,13.61,25.61a30.587,30.587,0,0,0,8.69,7.29,132.989,132.989,0,0,0-19.17,8.13,68.84,68.84,0,0,0-26.479,24.29l-.1.15a83.159,83.159,0,0,1,74.379-14.08c-4.86,22.17,20,21.87,20,21.87a74,74,0,0,0-38.319,22.7h0c-5.33,5.94-2.56,5.92,5.08,3.9q-4.32,2.05-8.86,4.52h0c-14,15.56,18.56-3.09,56.909-6.19A90.5,90.5,0,0,1,479.937,229c12.85,2.45,13.4,2.35,20.06,4.92C500,233.888,497.067,216.778,484.447,205.749Z" transform="translate(0.003 -0.002)" fill="#0bf"/>
      <path id="Path_7652" data-name="Path 7652" d="M408.249,174.5C388,191.4,368.43,233.109,405.679,287l-6.16,6.81c-10.16-11.76-19.37-20.16-26.369-34.069C349.19,212.149,383,180,408.249,174.5Z" transform="translate(0.003 -0.003)" fill="#1ad4ff" opacity="0.6"/>
      <path id="Path_7653" data-name="Path 7653" d="M484.447,205.749h0a36.066,36.066,0,0,0-10.62-6.49s4.65-25.479-19.12-31.359c-14.74-3.63-27.22-6.74-38.949-11.05-7-2.6-19.75,2-45.889-27.349,0,0,4.68,15.2,13.61,25.61a30.587,30.587,0,0,0,8.69,7.29,132.989,132.989,0,0,0-19.17,8.13,68.84,68.84,0,0,0-26.479,24.29l-.1.15a83.159,83.159,0,0,1,74.379-14.08c-4.86,22.17,20,21.87,20,21.87a74,74,0,0,0-38.319,22.7h0c-5.33,5.94-2.56,5.92,5.08,3.9q-4.32,2.05-8.86,4.52h0c-14,15.56,18.56-3.09,56.909-6.19A90.5,90.5,0,0,1,479.937,229c12.85,2.45,13.4,2.35,20.06,4.92C500,233.888,497.067,216.778,484.447,205.749Z" transform="translate(0.003 -0.002)" fill="none"/>
      <path id="Path_7654" data-name="Path 7654" d="M418,259.329a33,33,0,0,1,22.59-30,31,31,0,0,1-1.53-17.33,41.72,41.72,0,0,0-15.95,3.88c-37.419,17-17.43,71.139-17.43,71.139s-19.4-11.16-35.579-34c.89,2.21,1.9,4.46,3,6.75,15.52,30.819,41.869,34.6,65.409,107.758C447.928,316.058,416.459,290.578,418,259.329Z" transform="translate(0.003 -0.004)" fill="#0bf"/>
      <path id="Path_7651" data-name="Path 7651" d="M479.939,229c12.85,2.45,13.4,2.35,20.059,4.92,0,0-.07-.41-.24-1.15-15.66-15.89-43.219-30.269-71.8-13.39,25.29-12.15,48.189-1.32,39.8,8.16a89.062,89.062,0,0,1,12.18,1.46Z" transform="translate(0.002 -0.004)" fill="#5ce8ff" opacity="0.7"/>
    </g>
  </g>
</svg>
